<?xml version="1.0" encoding="utf-8"?>
<!-- Generator: Adobe Illustrator 18.0.0, SVG Export Plug-In . SVG Version: 6.00 Build 0)  -->
<!DOCTYPE svg PUBLIC "-//W3C//DTD SVG 1.1//EN" "http://www.w3.org/Graphics/SVG/1.1/DTD/svg11.dtd">
<svg version="1.1" id="Layer_1" xmlns="http://www.w3.org/2000/svg" xmlns:xlink="http://www.w3.org/1999/xlink" x="0px" y="0px"
	 viewBox="0 88.6 612 479.6" enable-background="new 0 88.6 612 479.6" xml:space="preserve">
<path fill="#A4ACB3" d="M0,480c0,12.5,10.2,22.8,22.8,22.8h566.5c12.5,0,22.8-10.2,22.8-22.8v-24.7H0V480z"/>
<path fill="#3D4042" d="M365.6,521c-3.8-5.1-10.2-23.3-10.2-23.3h-99.8c0,0-6.3,18.2-10.2,23.3c-7.6,10.1-8.5,7-36.4,34.9
	c-8.7,8.7,0,12.3,0,12.3h94.7h3.4c0,0,71,0,94.7,0c3,0,8.7-3.6,0-12.3C374.1,528.2,373.2,531,365.6,521z"/>
<path fill="#C5D0D8" d="M365.6,517.8c-3.8-5.1-10.2-23.3-10.2-23.3h-99.8c0,0-6.3,18.2-10.2,23.3c-7.6,10.1-8.5,7.2-36.4,34.9
	c-8.7,8.7,0,12.3,0,12.3h94.7h3.4c0,0,71,0,94.7,0c3,0,8.7-3.6,0-12.3C374.1,524.8,373.2,527.8,365.6,517.8z"/>
<path fill="#2C3D51" d="M612,473.6c0,12.7-10.2,23-22.8,23H22.8c-12.5,0-22.8-10.2-22.8-23v-362c0-12.7,10.2-23,22.8-23h566.5
	c12.5,0,22.8,10.2,22.8,23L612,473.6L612,473.6z"/>
<path fill="#DFE9EE" d="M0,476.2C0,488.7,10.2,499,22.8,499h566.5c12.5,0,22.8-10.2,22.8-22.8v-24.7H0V476.2z"/>
<circle fill="#2C3D51" cx="306" cy="474.7" r="11.4"/>
<polygon fill="#B9C1C6" points="357.2,499 361,508.7 247.4,514.7 254,499 "/>
<rect x="21.4" y="113.5" fill="#FFFFFF" width="569.1" height="320.2"/>
</svg>
