<?xml version="1.0" encoding="utf-8"?>
<!-- Generator: Adobe Illustrator 18.0.0, SVG Export Plug-In . SVG Version: 6.00 Build 0)  -->
<!DOCTYPE svg PUBLIC "-//W3C//DTD SVG 1.1//EN" "http://www.w3.org/Graphics/SVG/1.1/DTD/svg11.dtd">
<svg version="1.1" id="Layer_1" xmlns="http://www.w3.org/2000/svg" xmlns:xlink="http://www.w3.org/1999/xlink" x="0px" y="0px"
	 viewBox="-418.5 20 350 350" enable-background="new -418.5 20 350 350" xml:space="preserve">
<g>
	
		<image overflow="visible" opacity="0.33" width="361" height="360" xlink:href="B0AD262961310586.png"  transform="matrix(1 0 0 1 -417 22)">
	</image>
	<g>
		<ellipse fill="#FDCB45" cx="-243.5" cy="195" rx="150.5" ry="150"/>
	</g>
</g>
<g>
	
		<image overflow="visible" opacity="0.33" width="211" height="273" xlink:href="B0AD262961310585.png"  transform="matrix(1 0 0 1 -341 58)">
	</image>
	<g>
		<g>
			<path fill="#CCA962" d="M-311.3,198.6c0.2,17.7,8.3,33.4,15.4,49.3c6,13.6,13.7,27.2,26.6,35.4c20.4,13,27.6,9.2,27.5,9.2
				s7.9,0.3,27.8-9.2c20.6-9.9,30.4-41.7,36-61.7c8-28.5,4.7-58.5-9.7-84.7c-2.4-4.5-5.5-9-10.2-10.8c-4.6-1.7-9.7-0.4-14.4,0.6
				c-19.9,4.3-40.7,4.1-60.4-0.7c-6.9-1.7-14.7-3.7-20.6,0.3c-4.2,2.9-6,8.1-7.5,13c-5.4,18.6-10,38-10.4,57.4
				C-311.3,197.3-311.3,197.9-311.3,198.6z"/>
			<path fill="none" stroke="#030302" stroke-width="2" stroke-miterlimit="10" d="M-233.2,198c0,0,17.7-25.2,36.5,0"/>
			<path fill="none" stroke="#030302" stroke-width="2" stroke-miterlimit="10" d="M-290.4,198c0,0,17.7-25.2,36.5,0"/>
			<circle fill="#0B0907" stroke="#030302" stroke-width="3" stroke-miterlimit="10" cx="-272.1" cy="198" r="7.8"/>
			<circle fill="#0B0907" stroke="#030302" stroke-width="3" stroke-miterlimit="10" cx="-214.9" cy="198" r="7.8"/>
			<path fill="none" stroke="#030302" stroke-width="4" stroke-miterlimit="10" d="M-233,183.8c-0.3-0.5,29.8-24.2,44.3-4.8"/>
			<path fill="none" stroke="#030302" stroke-width="5" stroke-miterlimit="10" d="M-253.8,183.8c0,0-26.8-22.6-44.5-6.2"/>
			<path fill="none" stroke="#030302" stroke-width="2" stroke-miterlimit="10" d="M-267.4,247.1c0,0,16.1,13.4,47.8,0"/>
			<path fill="none" stroke="#030302" stroke-width="2" stroke-miterlimit="10" d="M-246.3,205.8c0,0-3.3,17.4-7.5,16.4
				s1.3,12.3,10.3,9.7"/>
			<path stroke="#030302" stroke-width="3" stroke-miterlimit="10" d="M-310.3,195c0,0-15.2-53.4,2.1-75.6
				c17.2-22.2,8.6-17.7,41.9-32s100.2,9.9,96.5,60.8c0,0,4.9,20.6-4.9,46.8h-5.4l-5.3-32.6l-7.8,8.7l-11.1-26.7l-12.3,20.1
				l-13.5-28.7l-12.3,26.6l-14.4-25.7l-12.3,29.2l-12.3-21.8l-9.4,26.7l-11.5-16l-6.2,36.5"/>
		</g>
	</g>
</g>
</svg>
